<?xml version="1.0" encoding="UTF-8"?>
<svg version="1.1" xmlns="http://www.w3.org/2000/svg" width="145" height="57">
<path d="M0 0 C47.85 0 95.7 0 145 0 C145 18.81 145 37.62 145 57 C97.15 57 49.3 57 0 57 C0 38.19 0 19.38 0 0 Z " fill="#FAFBFC" transform="translate(0,0)"/>
<path d="M0 0 C1.32 0.33 2.64 0.66 4 1 C4 6.94 4 12.88 4 19 C4.99 18.34 5.98 17.68 7 17 C7.35808854 14.41413113 7.55757134 12.0310952 7.625 9.4375 C7.89585331 2.10414669 7.89585331 2.10414669 9 1 C11.82256491 0.89992992 14.6152319 0.86124402 17.4375 0.875 C18.22705078 0.87113281 19.01660156 0.86726562 19.83007812 0.86328125 C25.74673867 0.87336933 25.74673867 0.87336933 28 2 C27.67 3.32 27.34 4.64 27 6 C22.38 6 17.76 6 13 6 C13 8.31 13 10.62 13 13 C17.29 13 21.58 13 26 13 C26 14.32 26 15.64 26 17 C24.12175109 18.87824891 20.96064724 18.39102397 18.4375 18.5625 C16.64119141 18.68818359 16.64119141 18.68818359 14.80859375 18.81640625 C13.88175781 18.87699219 12.95492187 18.93757813 12 19 C12 21.31 12 23.62 12 26 C16.29 26 20.58 26 25 26 C25.495 28.475 25.495 28.475 26 31 C23.39472895 31.10792837 20.79391689 31.18724878 18.1875 31.25 C17.44951172 31.28351562 16.71152344 31.31703125 15.95117188 31.3515625 C10.48042666 31.45058051 10.48042666 31.45058051 8.05078125 29.171875 C7 27 7 27 6 24 C5.01 26.31 4.02 28.62 3 31 C2.14535156 30.7525 1.29070313 30.505 0.41015625 30.25 C-3.95690877 29.92984861 -6.16466313 31.55067589 -9.5625 34 C-15.1633233 38.00901036 -15.1633233 38.00901036 -18.5390625 37.97265625 C-21.56441214 36.77692282 -24.10103431 35.23425438 -26.8125 33.4375 C-28.27623047 32.47650391 -28.27623047 32.47650391 -29.76953125 31.49609375 C-30.50558594 31.00238281 -31.24164063 30.50867188 -32 30 C-31.23439544 28.7260098 -30.46227374 27.45593488 -29.6875 26.1875 C-29.25824219 25.47980469 -28.82898438 24.77210937 -28.38671875 24.04296875 C-27 22 -27 22 -25.42578125 20.4296875 C-23.74668829 18.89978086 -23.74668829 18.89978086 -22.5 15.9375 C-21 13 -21 13 -18 11 C-15.84375 10.734375 -15.84375 10.734375 -13.5 10.75 C-12.7265625 10.74484375 -11.953125 10.7396875 -11.15625 10.734375 C-9 11 -9 11 -6 13 C-5.625 15.4375 -5.625 15.4375 -6 18 C-8.06941387 20.4986731 -10.27963293 21.80507139 -13.1875 23.1875 C-13.90292969 23.53167969 -14.61835938 23.87585938 -15.35546875 24.23046875 C-16.16951172 24.61138672 -16.16951172 24.61138672 -17 25 C-15.845 25.04125 -14.69 25.0825 -13.5 25.125 C-12.8503125 25.14820312 -12.200625 25.17140625 -11.53125 25.1953125 C-7.88490094 24.91395841 -4.53264823 23.9425343 -1 23 C-1.00785522 22.00818726 -1.00785522 22.00818726 -1.01586914 20.99633789 C-1.03657656 18.01840149 -1.04964012 15.04048018 -1.0625 12.0625 C-1.07087891 11.02158203 -1.07925781 9.98066406 -1.08789062 8.90820312 C-1.09272461 7.42416992 -1.09272461 7.42416992 -1.09765625 5.91015625 C-1.10551147 4.53549194 -1.10551147 4.53549194 -1.11352539 3.13305664 C-1 1 -1 1 0 0 Z " fill="#264199" transform="translate(36,14)"/>
<path d="M0 0 C5.61 0.33 11.22 0.66 17 1 C14.91609348 11.41953262 11.64050551 21.2729996 7.875 31.1875 C7.52622803 32.10853516 7.17745605 33.02957031 6.81811523 33.97851562 C5.41778075 37.6083877 4.16844233 40.7473365 2 44 C0.10424805 43.7434082 0.10424805 43.7434082 -2 43 C-2.98901367 41.29760742 -2.98901367 41.29760742 -3.66796875 39.10546875 C-3.92126953 38.31462891 -4.17457031 37.52378906 -4.43554688 36.70898438 C-4.68369141 35.87689453 -4.93183594 35.04480469 -5.1875 34.1875 C-5.44724609 33.36701172 -5.70699219 32.54652344 -5.97460938 31.70117188 C-7.90152279 25.5619361 -9.12508108 20.50421627 -9 14 C-8.02160156 13.52820313 -8.02160156 13.52820313 -7.0234375 13.046875 C-2.10344145 10.6376734 2.5332174 8.17376659 7 5 C4.69 4.67 2.38 4.34 0 4 C0 2.68 0 1.36 0 0 Z " fill="#A2A2A3" transform="translate(75,2)"/>
<path d="M0 0 C0.7734375 -0.00515625 1.546875 -0.0103125 2.34375 -0.015625 C4.5 0.25 4.5 0.25 7.5 2.25 C7.875 4.6875 7.875 4.6875 7.5 7.25 C5.43058613 9.7486731 3.22036707 11.05507139 0.3125 12.4375 C-0.40292969 12.78167969 -1.11835938 13.12585937 -1.85546875 13.48046875 C-2.39816406 13.73441406 -2.94085938 13.98835938 -3.5 14.25 C2.28898419 14.45674944 6.92932723 13.84162079 12.5 12.25 C12.94921875 14.94140625 12.94921875 14.94140625 12.5 18.25 C10.39969995 20.39671553 7.92614098 21.74088011 5.3125 23.1875 C4.63896484 23.59806641 3.96542969 24.00863281 3.27148438 24.43164062 C0.33374968 26.13122762 -1.69239823 27.25721073 -5.125 27.2265625 C-8.09622189 26.00484297 -10.63458375 24.46202282 -13.3125 22.6875 C-14.77623047 21.72650391 -14.77623047 21.72650391 -16.26953125 20.74609375 C-17.00558594 20.25238281 -17.74164063 19.75867188 -18.5 19.25 C-17.73439544 17.9760098 -16.96227374 16.70593488 -16.1875 15.4375 C-15.75824219 14.72980469 -15.32898438 14.02210937 -14.88671875 13.29296875 C-13.5 11.25 -13.5 11.25 -11.92578125 9.6796875 C-10.24668829 8.14978086 -10.24668829 8.14978086 -9 5.1875 C-6.78898907 0.85760359 -4.64059327 -0.03093729 0 0 Z " fill="#369DD4" transform="translate(22.5,24.75)"/>
<path d="M0 0 C0.99 0.33 1.98 0.66 3 1 C3.84375 3.58984375 3.84375 3.58984375 4.5 6.9375 C5.55103741 12.03055896 6.83272904 16.87408707 8.546875 21.78125 C9.09253741 24.4531142 8.68197775 26.38268 8 29 C6.125 28.75 6.125 28.75 4 28 C1.97244814 25.06004981 2 23.72295997 2 20 C-4.38721624 20.42134409 -4.38721624 20.42134409 -9.5546875 23.69140625 C-10.78017972 25.81529069 -10.78017972 25.81529069 -12 29 C-13.32 28.67 -14.64 28.34 -16 28 C-14.40981553 16.60367796 -7.3453933 8.493111 0 0 Z " fill="#295BA8" transform="translate(98,17)"/>
<path d="M0 0 C2.475 0.495 2.475 0.495 5 1 C5.27714844 2.05960938 5.55429688 3.11921875 5.83984375 4.2109375 C6.205614 5.59898869 6.57150572 6.98700787 6.9375 8.375 C7.11990234 9.07367188 7.30230469 9.77234375 7.49023438 10.4921875 C8.48512509 14.33955098 8.48512509 14.33955098 10 18 C10.40992187 16.86820313 10.81984375 15.73640625 11.2421875 14.5703125 C11.78616785 13.088435 12.33045463 11.60666996 12.875 10.125 C13.14441406 9.37863281 13.41382812 8.63226563 13.69140625 7.86328125 C15.7734375 2.2265625 15.7734375 2.2265625 18 0 C19.32 0 20.64 0 22 0 C21.35459191 5.92782508 19.20384064 11.17307409 17.0625 16.6875 C16.70220703 17.63689453 16.34191406 18.58628906 15.97070312 19.56445312 C14.5256233 23.32485422 13.24366874 26.63449689 11 30 C9.10424805 29.7434082 9.10424805 29.7434082 7 29 C6.01098633 27.29760742 6.01098633 27.29760742 5.33203125 25.10546875 C5.07873047 24.31462891 4.82542969 23.52378906 4.56445312 22.70898438 C4.31630859 21.87689453 4.06816406 21.04480469 3.8125 20.1875 C3.55275391 19.36701172 3.29300781 18.54652344 3.02539062 17.70117188 C1.09847721 11.5619361 -0.12508108 6.50421627 0 0 Z " fill="#2C429A" transform="translate(66,16)"/>
<path d="M0 0 C2.4375 1.1875 2.4375 1.1875 4 3 C4.625 5.4375 4.625 5.4375 4 8 C0.60056268 10.76698387 -2.87943123 12.54568161 -7 14 C-5.9110339 15.31372255 -5.9110339 15.31372255 -3.25 15.125 C-0.3659672 15.01407566 2.19859453 14.65915423 5 14 C4.625 16.4375 4.625 16.4375 4 19 C1.41991408 20.29004296 -0.55741574 20.20410224 -3.4375 20.25 C-4.88962891 20.28867187 -4.88962891 20.28867187 -6.37109375 20.328125 C-9.43891165 19.94521756 -10.03352976 19.26769256 -12 17 C-15.10007201 15.79950593 -15.10007201 15.79950593 -18 15 C-17.67 14.01 -17.34 13.02 -17 12 C-14.9375 11.3125 -14.9375 11.3125 -13 11 C-13.12375 9.9171875 -13.12375 9.9171875 -13.25 8.8125 C-12.92250873 5.12822325 -11.50171432 3.64887398 -9 1 C-5.94306678 -0.52846661 -3.37015453 -0.23242445 0 0 Z " fill="#2DACE0" transform="translate(135,24)"/>
<path d="M0 0 C2.0625 0.4375 2.0625 0.4375 4 1 C4 2.65 4 4.3 4 6 C6.64 6 9.28 6 12 6 C12 6.66 12 7.32 12 8 C11.34 8 10.68 8 10 8 C10 8.99 10 9.98 10 11 C8.35 11 6.7 11 5 11 C5 15.95 5 20.9 5 26 C3.35 26.33 1.7 26.66 0 27 C0 21.72 0 16.44 0 11 C-1.65 11 -3.3 11 -5 11 C-5.33 9.68 -5.66 8.36 -6 7 C-4.35 6.67 -2.7 6.34 -1 6 C-1.020625 5.195625 -1.04125 4.39125 -1.0625 3.5625 C-1 1 -1 1 0 0 Z " fill="#2987C5" transform="translate(111,18)"/>
<path d="M0 0 C0.66 0 1.32 0 2 0 C2.44921875 2.69140625 2.44921875 2.69140625 2 6 C-0.10030005 8.14671553 -2.57385902 9.49088011 -5.1875 10.9375 C-6.19780273 11.55334961 -6.19780273 11.55334961 -7.22851562 12.18164062 C-10.16625032 13.88122762 -12.19239823 15.00721073 -15.625 14.9765625 C-18.59622189 13.75484297 -21.13458375 12.21202282 -23.8125 10.4375 C-24.78832031 9.79683594 -25.76414062 9.15617187 -26.76953125 8.49609375 C-27.50558594 8.00238281 -28.24164063 7.50867187 -29 7 C-27.6796875 5.03125 -27.6796875 5.03125 -26 3 C-23.125 2.5 -23.125 2.5 -20 3 C-19.236875 3.66 -18.47375 4.32 -17.6875 5 C-14.29611844 7.52381884 -12.19528618 7.4060629 -8.0859375 7.3359375 C-5.69971419 7.0997828 -5.69971419 7.0997828 -3 5 C-2.484375 4.13375 -1.96875 3.2675 -1.4375 2.375 C-0.963125 1.59125 -0.48875 0.8075 0 0 Z " fill="#A2A2A1" transform="translate(33,37)"/>
<path d="M0 0 C1.98 0.495 1.98 0.495 4 1 C4 10.57 4 20.14 4 30 C2.68 30.33 1.36 30.66 0 31 C-1.85714057 29.14285943 -1.13048681 26.07492951 -1.1328125 23.59375 C-1.13410156 22.29308594 -1.13539062 20.99242187 -1.13671875 19.65234375 C-1.13462402 18.97155762 -1.1325293 18.29077148 -1.13037109 17.58935547 C-1.1250224 15.50871485 -1.1303168 13.42829011 -1.13671875 11.34765625 C-1.13542969 10.04699219 -1.13414063 8.74632812 -1.1328125 7.40625 C-1.13168457 6.20291016 -1.13055664 4.99957031 -1.12939453 3.75976562 C-1 1 -1 1 0 0 Z " fill="#1F5CA9" transform="translate(36,14)"/>
<path d="M0 0 C0.33 0.66 0.66 1.32 1 2 C0.1796875 4.14453125 0.1796875 4.14453125 -1.125 6.8125 C-4.09505646 13.08539235 -6.57204806 19.50135418 -9 26 C-11.97208811 20.77946262 -12.72248344 14.80689344 -14 9 C-9.38 6.03 -4.76 3.06 0 0 Z " fill="#FAFAFB" transform="translate(85,10)"/>
<path d="M0 0 C0.33 1.98 0.66 3.96 1 6 C1.66 4.68 2.32 3.36 3 2 C3 4.31 3 6.62 3 9 C7.62 9 12.24 9 17 9 C17.33 10.65 17.66 12.3 18 14 C15.39472895 14.10792837 12.79391689 14.18724878 10.1875 14.25 C9.44951172 14.28351562 8.71152344 14.31703125 7.95117188 14.3515625 C2.48042666 14.45058051 2.48042666 14.45058051 0.05078125 12.171875 C-1 10 -1 10 -2 7 C-2.99 7.495 -2.99 7.495 -4 8 C-4.1875 5.125 -4.1875 5.125 -4 2 C-1 0 -1 0 0 0 Z " fill="#4157A4" transform="translate(44,31)"/>
<path d="M0 0 C0.33 0 0.66 0 1 0 C1 1.98 1 3.96 1 6 C-0.65 6.66 -2.3 7.32 -4 8 C-4 8.66 -4 9.32 -4 10 C-7.96 10 -11.92 10 -16 10 C-16 7.69 -16 5.38 -16 3 C-8.08 2.505 -8.08 2.505 0 2 C0 1.34 0 0.68 0 0 Z " fill="#9B9CA2" transform="translate(65,17)"/>
<path d="M0 0 C0.556875 0.639375 1.11375 1.27875 1.6875 1.9375 C4.12781827 4.46438167 4.12781827 4.46438167 9 5 C9 9.95 9 14.9 9 20 C7.68 20 6.36 20 5 20 C0.59225513 6.3667426 0.59225513 6.3667426 0 0 Z " fill="#ECF2F7" transform="translate(102,24)"/>
<path d="M0 0 C1.258125 -0.04125 2.51625 -0.0825 3.8125 -0.125 C4.52019531 -0.14820312 5.22789063 -0.17140625 5.95703125 -0.1953125 C8 0 8 0 11 2 C11.42292803 4.74903217 11.43426293 6.31028828 9.9375 8.6875 C7.15689129 10.57113816 4.2365934 11.2061186 1 12 C1 9 1 9 3 6 C3.66 6 4.32 6 5 6 C5 5.34 5 4.68 5 4 C3.68 4 2.36 4 1 4 C0.67 2.68 0.34 1.36 0 0 Z " fill="#2484C5" transform="translate(19,25)"/>
<path d="M0 0 C1.75994274 3.16789693 2.24872886 5.24364431 3 9 C-2.61 9 -8.22 9 -14 9 C-10.17743008 5.17743008 -7.94608426 3.79857609 -3 2 C-2.01 2 -1.02 2 0 2 C0 1.34 0 0.68 0 0 Z " fill="#EBE3E0" transform="translate(68,30)"/>
<path d="M0 0 C3.375 -0.1875 3.375 -0.1875 7 0 C7.66 0.99 8.32 1.98 9 3 C9 2.01 9 1.02 9 0 C10.98 0 12.96 0 15 0 C15.33 1.65 15.66 3.3 16 5 C10.72 5 5.44 5 0 5 C0 3.35 0 1.7 0 0 Z " fill="#75A9D0" transform="translate(50,49)"/>
<path d="M0 0 C1.50433594 0.01353516 1.50433594 0.01353516 3.0390625 0.02734375 C3.80992188 0.03894531 4.58078125 0.05054687 5.375 0.0625 C5.375 1.3825 5.375 2.7025 5.375 4.0625 C4.375 5.0625 4.375 5.0625 1.87109375 5.16015625 C0.35708984 5.14275391 0.35708984 5.14275391 -1.1875 5.125 C-2.19941406 5.11597656 -3.21132813 5.10695313 -4.25390625 5.09765625 C-5.03636719 5.08605469 -5.81882813 5.07445312 -6.625 5.0625 C-6.955 3.7425 -7.285 2.4225 -7.625 1.0625 C-4.98041621 -0.25979189 -2.94738699 -0.03427194 0 0 Z " fill="#2F3694" transform="translate(56.625,26.9375)"/>
<path d="M0 0 C0.33 1.65 0.66 3.3 1 5 C0.11248047 5.09087891 0.11248047 5.09087891 -0.79296875 5.18359375 C-4.90978208 5.62012371 -8.95544533 6.08671346 -13 7 C-10.56232687 1.27146814 -10.56232687 1.27146814 -8.1875 0.125 C-5.45133532 -0.03135227 -2.73979311 -0.06226803 0 0 Z " fill="#E8E5E5" transform="translate(100,37)"/>
<path d="M0 0 C-0.33 1.32 -0.66 2.64 -1 4 C-5.62 4 -10.24 4 -15 4 C-14.67 2.68 -14.34 1.36 -14 0 C-12.2300132 -0.19532961 -10.45895721 -0.38098882 -8.6875 -0.5625 C-7.70136719 -0.66691406 -6.71523438 -0.77132813 -5.69921875 -0.87890625 C-3 -1 -3 -1 0 0 Z " fill="#353D98" transform="translate(64,16)"/>
<path d="M0 0 C0.556875 0.144375 1.11375 0.28875 1.6875 0.4375 C3.30352638 0.8305875 4.93013655 1.18149006 6.5625 1.5 C9 2 9 2 12 3 C12 4.32 12 5.64 12 7 C8.04 7 4.08 7 0 7 C0 4.69 0 2.38 0 0 Z " fill="#5695C7" transform="translate(35,47)"/>
<path d="M0 0 C0 1.32 0 2.64 0 4 C-4.95 4 -9.9 4 -15 4 C-14.01 3.34 -13.02 2.68 -12 2 C-12.33 1.34 -12.66 0.68 -13 0 C-11.39679026 -0.19551338 -9.79237014 -0.38111983 -8.1875 -0.5625 C-7.29417969 -0.66691406 -6.40085937 -0.77132812 -5.48046875 -0.87890625 C-3 -1 -3 -1 0 0 Z " fill="#262F91" transform="translate(62,41)"/>
<path d="M0 0 C3.96 0 7.92 0 12 0 C3.55172414 7 3.55172414 7 0 7 C0 4.69 0 2.38 0 0 Z " fill="#FCFCFC" transform="translate(49,20)"/>
<path d="M0 0 C0.33 0.66 0.66 1.32 1 2 C1.825 1.67 2.65 1.34 3.5 1 C7.5873983 -0.16782809 10.76923344 -0.1458885 15 0 C14.67 1.32 14.34 2.64 14 4 C12.68 4.33 11.36 4.66 10 5 C10 4.01 10 3.02 10 2 C9.29875 2.33 8.5975 2.66 7.875 3 C4.69224674 4.10704461 2.34671266 4.29748557 -1 4 C-1.66 3.34 -2.32 2.68 -3 2 C-2.01 1.34 -1.02 0.68 0 0 Z " fill="#E7E6E4" transform="translate(130,36)"/>
<path d="M0 0 C0.33 0 0.66 0 1 0 C1 4.95 1 9.9 1 15 C-0.32 15 -1.64 15 -3 15 C-4.25664978 12.09399739 -5 10.20395416 -5 7 C-3.35 6.67 -1.7 6.34 0 6 C0 4.02 0 2.04 0 0 Z " fill="#D2D9DE" transform="translate(110,29)"/>
<path d="M0 0 C-2.80804268 2.96404505 -5.18315774 5.44499019 -9 7 C-9 4.69 -9 2.38 -9 0 C-5.93109813 -1.53445094 -3.29905734 -0.54984289 0 0 Z " fill="#DCD9DE" transform="translate(57,33)"/>
<path d="M0 0 C2.38564077 0.57584432 4.66682784 1.22227595 7 2 C7.99 1.67 8.98 1.34 10 1 C10.33 1.66 10.66 2.32 11 3 C10.0625 5.125 10.0625 5.125 9 7 C8.67 6.01 8.34 5.02 8 4 C7.67 4.66 7.34 5.32 7 6 C6.34 6 5.68 6 5 6 C4.34 5.34 3.68 4.68 3 4 C2.34 4 1.68 4 1 4 C0.67 4.99 0.34 5.98 0 7 C0 4.69 0 2.38 0 0 Z " fill="#3E86C0" transform="translate(108,47)"/>
<path d="M0 0 C0.66 0 1.32 0 2 0 C1.67 2.31 1.34 4.62 1 7 C0.67 5.68 0.34 4.36 0 3 C-0.66 3 -1.32 3 -2 3 C-2.33 4.32 -2.66 5.64 -3 7 C-4.65 7 -6.3 7 -8 7 C-8 5.35 -8 3.7 -8 2 C-2.25 0.875 -2.25 0.875 0 2 C0 1.34 0 0.68 0 0 Z " fill="#4D90C4" transform="translate(90,47)"/>
<path d="M0 0 C2.33944736 0.28730055 4.6739143 0.61936779 7 1 C7.33 2.32 7.66 3.64 8 5 C4.846632 5.70074844 2.27275026 6 -1 6 C-0.67 5.34 -0.34 4.68 0 4 C0.66 4 1.32 4 2 4 C1.01 3.01 0.02 2.02 -1 1 C-0.67 0.67 -0.34 0.34 0 0 Z " fill="#4187C0" transform="translate(71,48)"/>
<path d="M0 0 C1.134375 0.020625 2.26875 0.04125 3.4375 0.0625 C3.4375 1.7125 3.4375 3.3625 3.4375 5.0625 C1.1275 5.0625 -1.1825 5.0625 -3.5625 5.0625 C-4.125 3.125 -4.125 3.125 -4.5625 1.0625 C-3.5625 0.0625 -3.5625 0.0625 0 0 Z " fill="#5896C7" transform="translate(96.5625,48.9375)"/>
<path d="M0 0 C2.31 0 4.62 0 7 0 C7 1.66666667 7 3.33333333 7 5 C4.69 5 2.38 5 0 5 C0 3.35 0 1.7 0 0 Z " fill="#438BC1" transform="translate(50,49)"/>
<path d="M0 0 C0.66 0 1.32 0 2 0 C2 1.98 2 3.96 2 6 C0.02 6.99 0.02 6.99 -2 8 C-3 5 -3 5 -1.6875 2.3125 C-1.130625 1.549375 -0.57375 0.78625 0 0 Z " fill="#A6A5A3" transform="translate(33,37)"/>
<path d="M0 0 C0 3.3 0 6.6 0 10 C-0.66 9.01 -1.32 8.02 -2 7 C-2.99 7.495 -2.99 7.495 -4 8 C-4.1875 5.125 -4.1875 5.125 -4 2 C-1 0 -1 0 0 0 Z " fill="#979DA8" transform="translate(44,31)"/>
<path d="M0 0 C0.99 0.99 1.98 1.98 3 3 C2.34 4.98 1.68 6.96 1 9 C-0.32 8.67 -1.64 8.34 -3 8 C-2.01 5.36 -1.02 2.72 0 0 Z " fill="#E3DEDE" transform="translate(81,35)"/>
<path d="M0 0 C1.125 3.75 1.125 3.75 0 6 C0.66 6 1.32 6 2 6 C1.67 6.66 1.34 7.32 1 8 C-0.65 7.67 -2.3 7.34 -4 7 C-3.43628586 3.73045798 -2.50037734 2.17424117 0 0 Z " fill="#33ADE0" transform="translate(12,33)"/>
<path d="M0 0 C3.46994421 -0.39656505 4.72510143 -0.19635612 7.625 1.875 C8.40875 2.57625 9.1925 3.2775 10 4 C10.99 4.66 11.98 5.32 13 6 C7.71862571 5.48474397 4.42778844 3.74522883 0 1 C0 0.67 0 0.34 0 0 Z " fill="#F3F7F7" transform="translate(8,40)"/>
<path d="M0 0 C0.33 0 0.66 0 1 0 C1 2.31 1 4.62 1 7 C-0.32 7 -1.64 7 -3 7 C-2.67 5.35 -2.34 3.7 -2 2 C-1.34 2 -0.68 2 0 2 C0 1.34 0 0.68 0 0 Z " fill="#5E9DCB" transform="translate(135,47)"/>
<path d="M0 0 C3.125 -0.1875 3.125 -0.1875 6 0 C6 0.99 6 1.98 6 3 C3.36 3 0.72 3 -2 3 C-1.34 2.01 -0.68 1.02 0 0 Z " fill="#F9F8F9" transform="translate(64,34)"/>
<path d="M0 0 C0.33 0 0.66 0 1 0 C1 2.31 1 4.62 1 7 C-0.32 7.33 -1.64 7.66 -3 8 C-1.125 1.125 -1.125 1.125 0 0 Z " fill="#F5F1ED" transform="translate(42,37)"/>
<path d="M0 0 C0.66 0 1.32 0 2 0 C2 1.98 2 3.96 2 6 C0.35 6 -1.3 6 -3 6 C-2.01 4.02 -1.02 2.04 0 0 Z " fill="#E5EAF3" transform="translate(96,27)"/>
</svg>
